<?xml version="1.0" encoding="utf-8"?>
<svg viewBox="47.4 253.652 421.854 215.22" xmlns="http://www.w3.org/2000/svg" xmlns:bx="https://boxy-svg.com">
  <defs>
    <style bx:fonts="Akronim">@import url(https://fonts.googleapis.com/css2?family=Akronim%3Aital%2Cwght%400%2C400&amp;display=swap);</style>
  </defs>
  <path style="stroke: rgb(0, 0, 0); fill: rgb(255, 99, 54);" d="M 94.799 436.56 C 134.001 436.56 175.63 432.656 211.377 414.782 C 216.05 412.446 236.417 397.656 240.841 394.285 C 245.191 390.971 249.662 387.777 253.652 384.037 C 257.557 380.376 270.306 367.744 270.306 360.977 C 270.306 356.362 262.601 354.351 260.057 353.291 C 243.308 346.312 226.76 342.07 208.815 339.199 C 194.191 336.859 180.077 335.857 165.258 336.637 C 133.248 338.322 98.97 374.255 84.551 400.69 C 81.005 407.192 61.342 435.23 76.864 440.404 C 123.901 456.083 188.451 437.182 221.625 400.69 C 244.197 375.861 259.428 340.55 284.398 318.702 C 301.167 304.028 340.722 309.807 361.262 311.016 C 366.915 311.348 378.148 311.712 380.478 318.702 C 390.972 350.184 349.443 368.157 329.235 378.912 C 280.103 405.063 219.321 432.717 165.258 432.717" transform="matrix(1, 0, 0, 1, 0, 8.881784197001252e-16)"/>
  <text style="fill: rgb(255, 255, 255); font-family: Akronim; font-size: 28px;" transform="matrix(3.372702121734619, 0, 0, 4.561159133911133, -327.2225341796875, -510.1296997070313)" x="129.815" y="201.697">Aakash</text>
</svg>