<svg xmlns="http://www.w3.org/2000/svg" xmlns:xlink="http://www.w3.org/1999/xlink" width="500" zoomAndPan="magnify" viewBox="0 0 375 374.999991" height="500" preserveAspectRatio="xMidYMid meet" version="1.0"><defs><g/><clipPath id="e852ac67a0"><path d="M 287.066406 188.25 L 291.136719 188.25 L 291.136719 192.320312 L 287.066406 192.320312 Z M 287.066406 188.25 " clip-rule="nonzero"/></clipPath><clipPath id="e42dc6598c"><path d="M 289.101562 188.25 C 287.976562 188.25 287.066406 189.160156 287.066406 190.285156 C 287.066406 191.40625 287.976562 192.320312 289.101562 192.320312 C 290.226562 192.320312 291.136719 191.40625 291.136719 190.285156 C 291.136719 189.160156 290.226562 188.25 289.101562 188.25 Z M 289.101562 188.25 " clip-rule="nonzero"/></clipPath></defs><g fill="#ffffff" fill-opacity="1"><g transform="translate(72.547618, 233.234804)"><g><path d="M 91.203125 -31.09375 C 88.953125 -30.976562 86.707031 -30.738281 84.46875 -30.375 C 83.476562 -30.25 82.46875 -30.117188 81.4375 -29.984375 C 72.113281 -28.867188 62.8125 -27.457031 53.53125 -25.75 C 53.0625 -25.675781 52.679688 -25.617188 52.390625 -25.578125 C 51.867188 -25.523438 51.492188 -25.457031 51.265625 -25.375 C 51.046875 -25.289062 50.882812 -25.132812 50.78125 -24.90625 C 50.675781 -24.675781 50.570312 -24.296875 50.46875 -23.765625 C 50.394531 -23.472656 50.300781 -23.109375 50.1875 -22.671875 C 49.1875 -19.023438 48.320312 -15.359375 47.59375 -11.671875 C 47.113281 -9.273438 46.832031 -6.859375 46.75 -4.421875 C 46.695312 -3.648438 46.753906 -2.914062 46.921875 -2.21875 C 47.097656 -1.519531 47.519531 -0.941406 48.1875 -0.484375 C 48.269531 -0.441406 48.304688 -0.375 48.296875 -0.28125 C 48.296875 -0.1875 48.257812 -0.09375 48.1875 0 C 48.113281 0.0820312 48.035156 0.140625 47.953125 0.171875 C 46.617188 0.597656 45.710938 0.238281 45.234375 -0.90625 C 44.960938 -1.539062 44.820312 -2.226562 44.8125 -2.96875 C 44.800781 -3.007812 44.796875 -3.039062 44.796875 -3.0625 C 44.703125 -4.300781 44.71875 -5.546875 44.84375 -6.796875 C 44.976562 -8.054688 45.15625 -9.316406 45.375 -10.578125 C 46.09375 -14.398438 46.953125 -18.195312 47.953125 -21.96875 C 48.015625 -22.125 48.054688 -22.285156 48.078125 -22.453125 C 48.128906 -22.640625 48.1875 -22.832031 48.25 -23.03125 C 48.320312 -23.289062 48.390625 -23.5625 48.453125 -23.84375 C 48.523438 -24.125 48.523438 -24.394531 48.453125 -24.65625 C 48.304688 -24.738281 48.171875 -24.78125 48.046875 -24.78125 C 47.921875 -24.789062 47.796875 -24.769531 47.671875 -24.71875 C 47.648438 -24.71875 47.617188 -24.710938 47.578125 -24.703125 C 46.484375 -24.523438 45.394531 -24.335938 44.3125 -24.140625 C 44 -24.097656 43.675781 -24.050781 43.34375 -24 C 42.945312 -23.90625 42.628906 -23.71875 42.390625 -23.4375 C 42.148438 -23.164062 41.929688 -22.84375 41.734375 -22.46875 C 41.460938 -21.988281 41.191406 -21.503906 40.921875 -21.015625 C 39.804688 -18.972656 38.664062 -16.941406 37.5 -14.921875 C 35.78125 -11.984375 33.953125 -9.117188 32.015625 -6.328125 C 30.078125 -3.546875 27.972656 -0.894531 25.703125 1.625 C 22.847656 4.875 19.742188 7.820312 16.390625 10.46875 C 11.234375 14.414062 5.550781 16.816406 -0.65625 17.671875 C -6.507812 18.492188 -12.019531 17.773438 -17.1875 15.515625 C -18.644531 14.878906 -19.984375 14.046875 -21.203125 13.015625 C -22.015625 12.285156 -22.703125 11.460938 -23.265625 10.546875 C -23.828125 9.640625 -24.195312 8.613281 -24.375 7.46875 C -24.539062 6.082031 -24.4375 4.753906 -24.0625 3.484375 C -23.6875 2.210938 -23.066406 1.019531 -22.203125 -0.09375 C -21.023438 -1.675781 -19.664062 -3.070312 -18.125 -4.28125 C -16.65625 -5.5 -15.109375 -6.601562 -13.484375 -7.59375 C -11.867188 -8.582031 -10.226562 -9.492188 -8.5625 -10.328125 C -5.875 -11.710938 -3.128906 -12.953125 -0.328125 -14.046875 C 2.472656 -15.148438 5.300781 -16.160156 8.15625 -17.078125 C 14.945312 -19.160156 21.804688 -20.925781 28.734375 -22.375 C 32.253906 -23.164062 35.785156 -23.847656 39.328125 -24.421875 C 40.296875 -24.554688 40.976562 -25.09375 41.375 -26.03125 C 42.101562 -27.5 42.832031 -28.972656 43.5625 -30.453125 C 44.695312 -32.722656 45.8125 -35.03125 46.90625 -37.375 C 51.90625 -48.320312 56.613281 -59.390625 61.03125 -70.578125 C 61.382812 -71.523438 61.734375 -72.488281 62.078125 -73.46875 C 62.234375 -73.957031 62.40625 -74.453125 62.59375 -74.953125 C 62.800781 -75.585938 63.226562 -75.992188 63.875 -76.171875 C 64.226562 -76.234375 64.503906 -76.175781 64.703125 -76 C 64.910156 -75.832031 64.972656 -75.566406 64.890625 -75.203125 C 64.804688 -74.898438 64.703125 -74.609375 64.578125 -74.328125 C 63.898438 -72.410156 63.320312 -70.488281 62.84375 -68.5625 C 62.65625 -67.882812 62.46875 -67.210938 62.28125 -66.546875 C 60.5625 -60.328125 58.820312 -54.09375 57.0625 -47.84375 C 55.738281 -43.03125 54.390625 -38.207031 53.015625 -33.375 C 52.640625 -31.9375 52.265625 -30.507812 51.890625 -29.09375 C 51.804688 -28.789062 51.722656 -28.503906 51.640625 -28.234375 C 51.617188 -28.179688 51.601562 -28.117188 51.59375 -28.046875 C 51.539062 -27.835938 51.5 -27.640625 51.46875 -27.453125 C 51.445312 -27.273438 51.492188 -27.101562 51.609375 -26.9375 C 51.804688 -26.84375 52.019531 -26.804688 52.25 -26.828125 C 52.476562 -26.859375 52.691406 -26.890625 52.890625 -26.921875 C 53.054688 -26.972656 53.203125 -27.003906 53.328125 -27.015625 C 54.296875 -27.160156 55.257812 -27.320312 56.21875 -27.5 C 57.539062 -27.707031 58.867188 -27.910156 60.203125 -28.109375 C 67.441406 -29.148438 74.691406 -30.160156 81.953125 -31.140625 C 84.328125 -31.484375 86.695312 -31.773438 89.0625 -32.015625 C 89.28125 -32.023438 89.5 -32.046875 89.71875 -32.078125 C 89.851562 -32.097656 89.992188 -32.125 90.140625 -32.15625 C 90.453125 -32.207031 90.75 -32.226562 91.03125 -32.21875 C 91.320312 -32.207031 91.613281 -32.144531 91.90625 -32.03125 C 91.945312 -32.007812 91.988281 -31.960938 92.03125 -31.890625 C 92.070312 -31.816406 92.078125 -31.753906 92.046875 -31.703125 C 92.066406 -31.617188 92.050781 -31.539062 92 -31.46875 C 91.945312 -31.394531 91.894531 -31.347656 91.84375 -31.328125 C 91.644531 -31.203125 91.429688 -31.125 91.203125 -31.09375 Z M 39.515625 -22.5 C 39.578125 -22.675781 39.566406 -22.820312 39.484375 -22.9375 C 39.398438 -23.050781 39.28125 -23.09375 39.125 -23.0625 C 38.875 -23.050781 38.632812 -23.015625 38.40625 -22.953125 C 38.269531 -22.921875 38.140625 -22.898438 38.015625 -22.890625 C 29.296875 -21.359375 20.648438 -19.335938 12.078125 -16.828125 C 8.804688 -15.878906 5.566406 -14.804688 2.359375 -13.609375 C -0.847656 -12.421875 -3.988281 -11.0625 -7.0625 -9.53125 C -8.71875 -8.71875 -10.332031 -7.828125 -11.90625 -6.859375 C -13.476562 -5.898438 -14.992188 -4.816406 -16.453125 -3.609375 C -17.984375 -2.398438 -19.320312 -1.007812 -20.46875 0.5625 C -21.8125 2.46875 -22.429688 4.375 -22.328125 6.28125 C -22.234375 8.1875 -21.441406 9.910156 -19.953125 11.453125 C -18.867188 12.523438 -17.632812 13.394531 -16.25 14.0625 C -11.21875 16.53125 -5.582031 17.285156 0.65625 16.328125 C 2.25 16.066406 4.050781 15.5625 6.0625 14.8125 C 8.039062 14.050781 9.921875 13.097656 11.703125 11.953125 C 13.492188 10.816406 15.203125 9.539062 16.828125 8.125 C 20.835938 4.664062 24.441406 0.800781 27.640625 -3.46875 C 29.867188 -6.351562 31.925781 -9.34375 33.8125 -12.4375 C 35.695312 -15.539062 37.5 -18.679688 39.21875 -21.859375 C 39.320312 -22.085938 39.421875 -22.300781 39.515625 -22.5 Z M 49.5625 -27.828125 C 50.613281 -31.910156 51.71875 -35.988281 52.875 -40.0625 C 52.925781 -40.289062 53.097656 -40.9375 53.390625 -42 C 53.691406 -43.070312 54.035156 -44.3125 54.421875 -45.71875 C 54.804688 -47.125 55.148438 -48.445312 55.453125 -49.6875 C 55.753906 -50.9375 55.957031 -51.867188 56.0625 -52.484375 C 56.175781 -53.109375 56.109375 -53.15625 55.859375 -52.625 C 55.785156 -52.519531 55.742188 -52.410156 55.734375 -52.296875 C 55.515625 -51.835938 55.3125 -51.390625 55.125 -50.953125 C 53.539062 -47.316406 51.941406 -43.6875 50.328125 -40.0625 C 48.722656 -36.445312 47.035156 -32.863281 45.265625 -29.3125 C 45.085938 -28.96875 44.914062 -28.613281 44.75 -28.25 C 44.40625 -27.582031 44.070312 -26.898438 43.75 -26.203125 C 43.613281 -25.921875 43.597656 -25.703125 43.703125 -25.546875 C 43.804688 -25.398438 43.992188 -25.347656 44.265625 -25.390625 C 44.734375 -25.460938 45.1875 -25.546875 45.625 -25.640625 C 46.320312 -25.816406 47.03125 -25.960938 47.75 -26.078125 C 48.300781 -26.140625 48.703125 -26.320312 48.953125 -26.625 C 49.210938 -26.925781 49.414062 -27.328125 49.5625 -27.828125 Z M 49.5625 -27.828125 "/></g></g><g transform="translate(127.54948, 224.301197)"><g><path d="M 11.15625 -10.875 C 11.457031 -10.769531 11.535156 -10.398438 11.390625 -9.765625 C 11.140625 -9.265625 10.851562 -8.789062 10.53125 -8.34375 C 10.207031 -7.90625 9.835938 -7.492188 9.421875 -7.109375 C 9.390625 -7.109375 9.378906 -7.097656 9.390625 -7.078125 C 9.128906 -6.828125 8.835938 -6.597656 8.515625 -6.390625 C 5.921875 -4.941406 4.421875 -5.296875 4.015625 -7.453125 C 3.046875 -6.296875 2.390625 -5.578125 2.046875 -5.296875 C 1.222656 -4.609375 0.269531 -4.210938 -0.8125 -4.109375 C -1.601562 -4.003906 -2.175781 -4.144531 -2.53125 -4.53125 C -2.882812 -4.925781 -2.957031 -5.523438 -2.75 -6.328125 C -2.425781 -7.578125 -1.863281 -8.734375 -1.0625 -9.796875 C -0.132812 -10.992188 0.953125 -12.007812 2.203125 -12.84375 C 2.859375 -13.320312 3.582031 -13.582031 4.375 -13.625 C 5.175781 -13.707031 5.722656 -13.34375 6.015625 -12.53125 C 6.117188 -12.28125 6.09375 -12.039062 5.9375 -11.8125 C 5.71875 -11.539062 5.429688 -11.4375 5.078125 -11.5 C 5.054688 -11.5 5.019531 -11.5 4.96875 -11.5 C 4.925781 -11.507812 4.890625 -11.523438 4.859375 -11.546875 C 4.460938 -11.960938 4.097656 -12.101562 3.765625 -11.96875 C 3.429688 -11.832031 3.09375 -11.613281 2.75 -11.3125 C 1.132812 -9.988281 0.0507812 -8.328125 -0.5 -6.328125 C -0.539062 -6.234375 -0.554688 -6.132812 -0.546875 -6.03125 C -0.546875 -5.9375 -0.503906 -5.863281 -0.421875 -5.8125 C -0.210938 -5.78125 0.0078125 -5.832031 0.25 -5.96875 C 0.488281 -6.113281 0.71875 -6.300781 0.9375 -6.53125 C 1.164062 -6.769531 1.359375 -6.960938 1.515625 -7.109375 C 1.535156 -7.148438 1.546875 -7.171875 1.546875 -7.171875 C 2.273438 -8.015625 2.984375 -8.875 3.671875 -9.75 C 3.960938 -10.1875 4.378906 -10.472656 4.921875 -10.609375 C 5.679688 -10.734375 6.046875 -10.445312 6.015625 -9.75 C 5.992188 -9.476562 5.960938 -9.207031 5.921875 -8.9375 C 5.796875 -7.789062 5.890625 -7.144531 6.203125 -7 C 6.515625 -6.851562 6.9375 -6.921875 7.46875 -7.203125 C 8.007812 -7.492188 8.523438 -7.953125 9.015625 -8.578125 C 9.503906 -9.210938 9.910156 -9.78125 10.234375 -10.28125 C 10.554688 -10.789062 10.863281 -10.988281 11.15625 -10.875 Z M 11.15625 -10.875 "/></g></g><g transform="translate(139.053024, 222.432748)"><g><path d="M 12.015625 -11.046875 C 12.128906 -10.921875 12.171875 -10.789062 12.140625 -10.65625 C 12.117188 -10.53125 12.054688 -10.40625 11.953125 -10.28125 C 11.265625 -9.425781 10.457031 -8.707031 9.53125 -8.125 C 7.976562 -7.070312 6.296875 -6.300781 4.484375 -5.8125 C 3.035156 -5.414062 1.609375 -5.40625 0.203125 -5.78125 C -0.316406 -5.925781 -0.660156 -5.753906 -0.828125 -5.265625 C -1.046875 -4.566406 -1.28125 -3.875 -1.53125 -3.1875 C -1.644531 -2.800781 -1.773438 -2.398438 -1.921875 -1.984375 C -1.953125 -1.929688 -1.972656 -1.875 -1.984375 -1.8125 C -2.046875 -1.675781 -2.097656 -1.539062 -2.140625 -1.40625 C -2.191406 -1.28125 -2.304688 -1.1875 -2.484375 -1.125 C -2.578125 -1.070312 -2.675781 -1.035156 -2.78125 -1.015625 C -2.894531 -1.003906 -2.992188 -1.019531 -3.078125 -1.0625 C -3.160156 -1.113281 -3.234375 -1.179688 -3.296875 -1.265625 C -3.359375 -1.347656 -3.394531 -1.441406 -3.40625 -1.546875 C -3.382812 -1.890625 -3.332031 -2.234375 -3.25 -2.578125 C -3.03125 -3.390625 -2.820312 -4.175781 -2.625 -4.9375 C -2.132812 -6.882812 -1.609375 -8.820312 -1.046875 -10.75 C 0.554688 -16.0625 2.035156 -21.394531 3.390625 -26.75 C 3.472656 -27.257812 3.632812 -27.726562 3.875 -28.15625 C 4.070312 -28.46875 4.378906 -28.597656 4.796875 -28.546875 C 5.253906 -28.441406 5.429688 -28.171875 5.328125 -27.734375 C 5.179688 -26.816406 5.023438 -25.898438 4.859375 -24.984375 C 3.890625 -20.753906 2.757812 -16.578125 1.46875 -12.453125 C 1.195312 -11.566406 1.132812 -11.023438 1.28125 -10.828125 C 1.4375 -10.640625 1.710938 -10.664062 2.109375 -10.90625 C 2.503906 -11.15625 2.96875 -11.476562 3.5 -11.875 C 3.851562 -12.164062 4.222656 -12.429688 4.609375 -12.671875 C 4.671875 -12.742188 4.734375 -12.800781 4.796875 -12.84375 C 5.253906 -13.195312 5.757812 -13.429688 6.3125 -13.546875 C 6.53125 -13.585938 6.707031 -13.515625 6.84375 -13.328125 C 6.925781 -13.203125 6.945312 -13.085938 6.90625 -12.984375 C 6.875 -12.890625 6.820312 -12.8125 6.75 -12.75 C 5.96875 -12.101562 5.164062 -11.476562 4.34375 -10.875 C 3.945312 -10.601562 3.535156 -10.316406 3.109375 -10.015625 C 2.691406 -9.734375 2.285156 -9.441406 1.890625 -9.140625 C 1.609375 -8.910156 1.363281 -8.660156 1.15625 -8.390625 C 0.65625 -7.679688 0.800781 -7.1875 1.59375 -6.90625 C 2.21875 -6.75 2.828125 -6.710938 3.421875 -6.796875 C 4.023438 -6.878906 4.613281 -7.039062 5.1875 -7.28125 C 6.9375 -7.988281 8.539062 -8.9375 10 -10.125 C 10.113281 -10.207031 10.234375 -10.289062 10.359375 -10.375 C 10.628906 -10.625 10.914062 -10.847656 11.21875 -11.046875 C 11.34375 -11.117188 11.476562 -11.160156 11.625 -11.171875 C 11.78125 -11.191406 11.910156 -11.148438 12.015625 -11.046875 Z M 12.015625 -11.046875 "/></g></g><g transform="translate(151.267949, 220.448755)"><g><path d="M 11.15625 -10.875 C 11.457031 -10.769531 11.535156 -10.398438 11.390625 -9.765625 C 11.140625 -9.265625 10.851562 -8.789062 10.53125 -8.34375 C 10.207031 -7.90625 9.835938 -7.492188 9.421875 -7.109375 C 9.390625 -7.109375 9.378906 -7.097656 9.390625 -7.078125 C 9.128906 -6.828125 8.835938 -6.597656 8.515625 -6.390625 C 5.921875 -4.941406 4.421875 -5.296875 4.015625 -7.453125 C 3.046875 -6.296875 2.390625 -5.578125 2.046875 -5.296875 C 1.222656 -4.609375 0.269531 -4.210938 -0.8125 -4.109375 C -1.601562 -4.003906 -2.175781 -4.144531 -2.53125 -4.53125 C -2.882812 -4.925781 -2.957031 -5.523438 -2.75 -6.328125 C -2.425781 -7.578125 -1.863281 -8.734375 -1.0625 -9.796875 C -0.132812 -10.992188 0.953125 -12.007812 2.203125 -12.84375 C 2.859375 -13.320312 3.582031 -13.582031 4.375 -13.625 C 5.175781 -13.707031 5.722656 -13.34375 6.015625 -12.53125 C 6.117188 -12.28125 6.09375 -12.039062 5.9375 -11.8125 C 5.71875 -11.539062 5.429688 -11.4375 5.078125 -11.5 C 5.054688 -11.5 5.019531 -11.5 4.96875 -11.5 C 4.925781 -11.507812 4.890625 -11.523438 4.859375 -11.546875 C 4.460938 -11.960938 4.097656 -12.101562 3.765625 -11.96875 C 3.429688 -11.832031 3.09375 -11.613281 2.75 -11.3125 C 1.132812 -9.988281 0.0507812 -8.328125 -0.5 -6.328125 C -0.539062 -6.234375 -0.554688 -6.132812 -0.546875 -6.03125 C -0.546875 -5.9375 -0.503906 -5.863281 -0.421875 -5.8125 C -0.210938 -5.78125 0.0078125 -5.832031 0.25 -5.96875 C 0.488281 -6.113281 0.71875 -6.300781 0.9375 -6.53125 C 1.164062 -6.769531 1.359375 -6.960938 1.515625 -7.109375 C 1.535156 -7.148438 1.546875 -7.171875 1.546875 -7.171875 C 2.273438 -8.015625 2.984375 -8.875 3.671875 -9.75 C 3.960938 -10.1875 4.378906 -10.472656 4.921875 -10.609375 C 5.679688 -10.734375 6.046875 -10.445312 6.015625 -9.75 C 5.992188 -9.476562 5.960938 -9.207031 5.921875 -8.9375 C 5.796875 -7.789062 5.890625 -7.144531 6.203125 -7 C 6.515625 -6.851562 6.9375 -6.921875 7.46875 -7.203125 C 8.007812 -7.492188 8.523438 -7.953125 9.015625 -8.578125 C 9.503906 -9.210938 9.910156 -9.78125 10.234375 -10.28125 C 10.554688 -10.789062 10.863281 -10.988281 11.15625 -10.875 Z M 11.15625 -10.875 "/></g></g><g transform="translate(162.771493, 218.580306)"><g><path d="M 6.984375 -10.15625 C 5.253906 -9.175781 4.019531 -8.40625 3.28125 -7.84375 C 2.738281 -7.457031 2.4375 -7.160156 2.375 -6.953125 C 2.320312 -6.753906 2.445312 -6.421875 2.75 -5.953125 C 2.757812 -5.929688 2.785156 -5.898438 2.828125 -5.859375 C 3.179688 -5.273438 3.4375 -4.660156 3.59375 -4.015625 C 3.882812 -2.703125 2.898438 -1.585938 0.640625 -0.671875 C -1.609375 0.242188 -3.171875 0.515625 -4.046875 0.140625 C -4.921875 -0.222656 -5.265625 -0.8125 -5.078125 -1.625 C -4.898438 -2.445312 -4.234375 -3.351562 -3.078125 -4.34375 C -1.921875 -5.34375 -1.148438 -6.050781 -0.765625 -6.46875 C -0.390625 -6.882812 -0.328125 -7.296875 -0.578125 -7.703125 C -0.648438 -7.828125 -0.738281 -7.960938 -0.84375 -8.109375 C -1.039062 -8.453125 -1.253906 -8.796875 -1.484375 -9.140625 C -1.898438 -9.773438 -2.140625 -10.4375 -2.203125 -11.125 C -2.273438 -11.8125 -2.117188 -12.421875 -1.734375 -12.953125 C -1.347656 -13.484375 -0.679688 -13.84375 0.265625 -14.03125 C 0.804688 -14.132812 1.300781 -14.140625 1.75 -14.046875 C 2.207031 -13.953125 2.601562 -13.703125 2.9375 -13.296875 C 3.195312 -13.015625 3.175781 -12.71875 2.875 -12.40625 C 2.6875 -12.1875 2.457031 -12.117188 2.1875 -12.203125 C 2.019531 -12.253906 1.847656 -12.328125 1.671875 -12.421875 C 1.660156 -12.460938 1.65625 -12.484375 1.65625 -12.484375 C 1.582031 -12.515625 1.515625 -12.550781 1.453125 -12.59375 C 1.359375 -12.6875 1.265625 -12.757812 1.171875 -12.8125 C 0.847656 -12.96875 0.535156 -12.976562 0.234375 -12.84375 C -0.0546875 -12.71875 -0.242188 -12.445312 -0.328125 -12.03125 C -0.390625 -11.71875 -0.394531 -11.40625 -0.34375 -11.09375 C -0.25 -10.707031 -0.0976562 -10.347656 0.109375 -10.015625 C 0.234375 -9.816406 0.351562 -9.628906 0.46875 -9.453125 C 0.75 -8.972656 0.96875 -8.644531 1.125 -8.46875 C 1.289062 -8.300781 1.457031 -8.25 1.625 -8.3125 C 1.800781 -8.375 3.34375 -9.226562 6.25 -10.875 C 6.90625 -11.21875 7.148438 -10.976562 6.984375 -10.15625 Z M 0.515625 -2.3125 C 1.285156 -2.726562 1.546875 -3.328125 1.296875 -4.109375 C 1.285156 -4.171875 1.257812 -4.238281 1.21875 -4.3125 C 1.101562 -4.738281 0.957031 -5.054688 0.78125 -5.265625 C 0.601562 -5.472656 0.289062 -5.414062 -0.15625 -5.09375 C -1.238281 -4.21875 -2.21875 -3.238281 -3.09375 -2.15625 C -3.15625 -2.0625 -3.210938 -1.972656 -3.265625 -1.890625 C -3.265625 -1.890625 -3.269531 -1.875 -3.28125 -1.84375 C -3.332031 -1.738281 -3.328125 -1.628906 -3.265625 -1.515625 C -3.203125 -1.398438 -3.085938 -1.359375 -2.921875 -1.390625 C -1.691406 -1.398438 -0.546875 -1.707031 0.515625 -2.3125 Z M 0.515625 -2.3125 "/></g></g><g transform="translate(170.457873, 217.331856)"><g><path d="M 12.78125 -10.375 C 12.59375 -10.144531 12.398438 -9.945312 12.203125 -9.78125 C 11.535156 -9.1875 10.925781 -8.707031 10.375 -8.34375 C 9.820312 -7.976562 9.160156 -7.59375 8.390625 -7.1875 C 7.253906 -6.632812 6.472656 -6.585938 6.046875 -7.046875 C 5.617188 -7.503906 5.441406 -8.21875 5.515625 -9.1875 C 5.628906 -10.570312 5.660156 -11.570312 5.609375 -12.1875 C 5.566406 -12.8125 5.332031 -12.988281 4.90625 -12.71875 C 4.476562 -12.445312 3.75 -11.679688 2.71875 -10.421875 C 1.28125 -8.703125 0.117188 -6.8125 -0.765625 -4.75 C -0.890625 -4.476562 -1.039062 -4.242188 -1.21875 -4.046875 C -1.40625 -3.847656 -1.664062 -3.722656 -2 -3.671875 C -2.300781 -3.617188 -2.535156 -3.660156 -2.703125 -3.796875 C -2.878906 -3.941406 -2.925781 -4.164062 -2.84375 -4.46875 C -2.40625 -6.070312 -1.945312 -7.671875 -1.46875 -9.265625 C -0.65625 -12.046875 0.132812 -14.800781 0.90625 -17.53125 C 1.488281 -19.582031 2.0625 -21.628906 2.625 -23.671875 C 2.96875 -24.890625 3.300781 -26.101562 3.625 -27.3125 C 3.65625 -27.40625 3.691406 -27.507812 3.734375 -27.625 C 3.753906 -27.757812 3.785156 -27.894531 3.828125 -28.03125 C 3.878906 -28.164062 3.9375 -28.3125 4 -28.46875 C 4.039062 -28.613281 4.148438 -28.742188 4.328125 -28.859375 C 4.503906 -28.972656 4.6875 -29.054688 4.875 -29.109375 C 5.070312 -29.160156 5.226562 -29.175781 5.34375 -29.15625 C 5.5 -29.0625 5.597656 -28.957031 5.640625 -28.84375 C 5.679688 -28.738281 5.679688 -28.617188 5.640625 -28.484375 C 5.617188 -28.453125 5.613281 -28.414062 5.625 -28.375 C 5.5 -27.632812 5.363281 -26.925781 5.21875 -26.25 C 4.320312 -22.476562 3.28125 -18.734375 2.09375 -15.015625 C 2.007812 -14.765625 1.910156 -14.460938 1.796875 -14.109375 C 1.609375 -13.597656 1.441406 -13.097656 1.296875 -12.609375 C 1.148438 -12.128906 1.125 -11.820312 1.21875 -11.6875 C 1.320312 -11.5625 1.648438 -11.734375 2.203125 -12.203125 C 2.359375 -12.367188 2.503906 -12.53125 2.640625 -12.6875 C 3.078125 -13.09375 3.503906 -13.476562 3.921875 -13.84375 C 4.296875 -14.1875 4.738281 -14.410156 5.25 -14.515625 C 6.445312 -14.796875 7.21875 -14.351562 7.5625 -13.1875 C 7.695312 -12.726562 7.753906 -12.257812 7.734375 -11.78125 C 7.722656 -11.300781 7.6875 -10.828125 7.625 -10.359375 C 7.625 -10.234375 7.625 -10.101562 7.625 -9.96875 C 7.550781 -9.144531 7.679688 -8.695312 8.015625 -8.625 C 8.359375 -8.5625 8.789062 -8.703125 9.3125 -9.046875 C 9.84375 -9.390625 10.378906 -9.773438 10.921875 -10.203125 C 11.285156 -10.492188 11.609375 -10.734375 11.890625 -10.921875 C 12.171875 -11.117188 12.390625 -11.222656 12.546875 -11.234375 C 12.835938 -11.234375 12.984375 -11.140625 12.984375 -10.953125 C 12.984375 -10.765625 12.914062 -10.570312 12.78125 -10.375 Z M 12.78125 -10.375 "/></g></g><g transform="translate(183.696491, 215.18159)"><g/></g><g transform="translate(196.813654, 213.051051)"><g><path d="M 81.5 -64.640625 C 81.832031 -64.421875 82.144531 -64.171875 82.4375 -63.890625 C 82.738281 -63.617188 82.960938 -63.269531 83.109375 -62.84375 C 83.273438 -62.363281 83.160156 -61.96875 82.765625 -61.65625 C 82.535156 -61.488281 82.289062 -61.429688 82.03125 -61.484375 C 81.769531 -61.535156 81.566406 -61.6875 81.421875 -61.9375 C 81.023438 -62.65625 80.507812 -63.191406 79.875 -63.546875 C 79.238281 -63.910156 78.5625 -64.207031 77.84375 -64.4375 C 76.269531 -64.96875 74.671875 -65.34375 73.046875 -65.5625 C 71.421875 -65.789062 69.789062 -65.957031 68.15625 -66.0625 C 65.425781 -66.1875 61.863281 -65.976562 57.46875 -65.4375 C 53.082031 -64.90625 48.234375 -64.054688 42.921875 -62.890625 C 37.609375 -61.722656 32.21875 -60.257812 26.75 -58.5 C 21.28125 -56.738281 16.097656 -54.695312 11.203125 -52.375 C 6.316406 -50.0625 2.113281 -47.476562 -1.40625 -44.625 C -4.925781 -41.78125 -7.394531 -38.695312 -8.8125 -35.375 C -9.976562 -32.5 -9.847656 -29.691406 -8.421875 -26.953125 C -7.410156 -25.066406 -6.117188 -23.414062 -4.546875 -22 C -2.222656 -19.863281 0.273438 -17.972656 2.953125 -16.328125 C 5.234375 -14.847656 7.523438 -13.367188 9.828125 -11.890625 C 12.066406 -10.484375 14.3125 -9.039062 16.5625 -7.5625 C 19.082031 -5.914062 21.5625 -4.226562 24 -2.5 C 24.238281 -2.332031 24.476562 -2.179688 24.71875 -2.046875 C 26.03125 -1.160156 27.226562 -0.144531 28.3125 1 C 29.4375 2.34375 29.785156 3.460938 29.359375 4.359375 C 28.941406 5.265625 27.988281 5.988281 26.5 6.53125 C 25.007812 7.070312 23.238281 7.453125 21.1875 7.671875 C 19.132812 7.898438 17.039062 7.976562 14.90625 7.90625 C 12.769531 7.84375 10.859375 7.660156 9.171875 7.359375 C 7.484375 7.066406 6.265625 6.679688 5.515625 6.203125 C 3.992188 5.203125 3.703125 3.921875 4.640625 2.359375 C 5.640625 0.765625 6.976562 -0.492188 8.65625 -1.421875 C 11.0625 -2.835938 13.65625 -3.34375 16.4375 -2.9375 C 16.976562 -2.832031 17.503906 -2.664062 18.015625 -2.4375 C 18.066406 -2.414062 18.113281 -2.394531 18.15625 -2.375 C 18.300781 -2.332031 18.40625 -2.242188 18.46875 -2.109375 C 18.539062 -1.972656 18.546875 -1.816406 18.484375 -1.640625 C 18.304688 -1.347656 18.054688 -1.234375 17.734375 -1.296875 C 17.429688 -1.347656 17.140625 -1.429688 16.859375 -1.546875 C 14.878906 -2.171875 12.96875 -2.054688 11.125 -1.203125 C 9.28125 -0.359375 7.820312 0.957031 6.75 2.75 C 6.300781 3.601562 6.378906 4.273438 6.984375 4.765625 C 7.597656 5.253906 8.472656 5.609375 9.609375 5.828125 C 10.742188 6.054688 11.867188 6.195312 12.984375 6.25 C 14.109375 6.300781 14.941406 6.320312 15.484375 6.3125 C 15.585938 6.300781 15.664062 6.300781 15.71875 6.3125 C 15.820312 6.300781 15.953125 6.296875 16.109375 6.296875 C 16.804688 6.335938 17.765625 6.34375 18.984375 6.3125 C 20.203125 6.289062 21.445312 6.207031 22.71875 6.0625 C 23.988281 5.914062 25.050781 5.65625 25.90625 5.28125 C 26.769531 4.90625 27.207031 4.378906 27.21875 3.703125 C 27.226562 3.023438 26.570312 2.128906 25.25 1.015625 C 23.820312 -0.160156 22.34375 -1.296875 20.8125 -2.390625 C 16.976562 -5.054688 13.070312 -7.609375 9.09375 -10.046875 C 7.675781 -10.960938 6.242188 -11.878906 4.796875 -12.796875 C 2.421875 -14.335938 0.0664062 -15.925781 -2.265625 -17.5625 C -4.421875 -19.0625 -6.382812 -20.78125 -8.15625 -22.71875 C -9.425781 -24.125 -10.414062 -25.703125 -11.125 -27.453125 C -12.21875 -30.328125 -12.113281 -33.164062 -10.8125 -35.96875 C -9.394531 -39.09375 -7.082031 -42.03125 -3.875 -44.78125 C -0.664062 -47.53125 3.160156 -50.054688 7.609375 -52.359375 C 12.054688 -54.660156 16.859375 -56.71875 22.015625 -58.53125 C 27.171875 -60.351562 32.425781 -61.90625 37.78125 -63.1875 C 43.132812 -64.46875 48.304688 -65.445312 53.296875 -66.125 C 58.285156 -66.800781 62.84375 -67.15625 66.96875 -67.1875 C 71.101562 -67.226562 74.554688 -66.90625 77.328125 -66.21875 C 78.773438 -65.90625 80.164062 -65.378906 81.5 -64.640625 Z M 81.5 -64.640625 "/></g></g><g transform="translate(222.388652, 208.897065)"><g><path d="M 12.78125 -10.375 C 12.59375 -10.144531 12.398438 -9.945312 12.203125 -9.78125 C 11.535156 -9.1875 10.925781 -8.707031 10.375 -8.34375 C 9.820312 -7.976562 9.160156 -7.59375 8.390625 -7.1875 C 7.253906 -6.632812 6.472656 -6.585938 6.046875 -7.046875 C 5.617188 -7.503906 5.441406 -8.21875 5.515625 -9.1875 C 5.628906 -10.570312 5.660156 -11.570312 5.609375 -12.1875 C 5.566406 -12.8125 5.332031 -12.988281 4.90625 -12.71875 C 4.476562 -12.445312 3.75 -11.679688 2.71875 -10.421875 C 1.28125 -8.703125 0.117188 -6.8125 -0.765625 -4.75 C -0.890625 -4.476562 -1.039062 -4.242188 -1.21875 -4.046875 C -1.40625 -3.847656 -1.664062 -3.722656 -2 -3.671875 C -2.300781 -3.617188 -2.535156 -3.660156 -2.703125 -3.796875 C -2.878906 -3.941406 -2.925781 -4.164062 -2.84375 -4.46875 C -2.40625 -6.070312 -1.945312 -7.671875 -1.46875 -9.265625 C -0.65625 -12.046875 0.132812 -14.800781 0.90625 -17.53125 C 1.488281 -19.582031 2.0625 -21.628906 2.625 -23.671875 C 2.96875 -24.890625 3.300781 -26.101562 3.625 -27.3125 C 3.65625 -27.40625 3.691406 -27.507812 3.734375 -27.625 C 3.753906 -27.757812 3.785156 -27.894531 3.828125 -28.03125 C 3.878906 -28.164062 3.9375 -28.3125 4 -28.46875 C 4.039062 -28.613281 4.148438 -28.742188 4.328125 -28.859375 C 4.503906 -28.972656 4.6875 -29.054688 4.875 -29.109375 C 5.070312 -29.160156 5.226562 -29.175781 5.34375 -29.15625 C 5.5 -29.0625 5.597656 -28.957031 5.640625 -28.84375 C 5.679688 -28.738281 5.679688 -28.617188 5.640625 -28.484375 C 5.617188 -28.453125 5.613281 -28.414062 5.625 -28.375 C 5.5 -27.632812 5.363281 -26.925781 5.21875 -26.25 C 4.320312 -22.476562 3.28125 -18.734375 2.09375 -15.015625 C 2.007812 -14.765625 1.910156 -14.460938 1.796875 -14.109375 C 1.609375 -13.597656 1.441406 -13.097656 1.296875 -12.609375 C 1.148438 -12.128906 1.125 -11.820312 1.21875 -11.6875 C 1.320312 -11.5625 1.648438 -11.734375 2.203125 -12.203125 C 2.359375 -12.367188 2.503906 -12.53125 2.640625 -12.6875 C 3.078125 -13.09375 3.503906 -13.476562 3.921875 -13.84375 C 4.296875 -14.1875 4.738281 -14.410156 5.25 -14.515625 C 6.445312 -14.796875 7.21875 -14.351562 7.5625 -13.1875 C 7.695312 -12.726562 7.753906 -12.257812 7.734375 -11.78125 C 7.722656 -11.300781 7.6875 -10.828125 7.625 -10.359375 C 7.625 -10.234375 7.625 -10.101562 7.625 -9.96875 C 7.550781 -9.144531 7.679688 -8.695312 8.015625 -8.625 C 8.359375 -8.5625 8.789062 -8.703125 9.3125 -9.046875 C 9.84375 -9.390625 10.378906 -9.773438 10.921875 -10.203125 C 11.285156 -10.492188 11.609375 -10.734375 11.890625 -10.921875 C 12.171875 -11.117188 12.390625 -11.222656 12.546875 -11.234375 C 12.835938 -11.234375 12.984375 -11.140625 12.984375 -10.953125 C 12.984375 -10.765625 12.914062 -10.570312 12.78125 -10.375 Z M 12.78125 -10.375 "/></g></g><g transform="translate(235.627271, 206.746799)"><g><path d="M 6.59375 -12 C 6.625 -11.1875 6.332031 -10.609375 5.71875 -10.265625 C 5.113281 -9.921875 4.851562 -10.203125 4.9375 -11.109375 C 5.019531 -12.023438 4.585938 -12.1875 3.640625 -11.59375 C 2.691406 -11 1.945312 -10.3125 1.40625 -9.53125 C 0.550781 -8.332031 -0.171875 -7.066406 -0.765625 -5.734375 C -0.835938 -5.609375 -0.890625 -5.507812 -0.921875 -5.4375 C -1.097656 -5.070312 -1.273438 -4.710938 -1.453125 -4.359375 C -1.566406 -4.128906 -1.722656 -3.972656 -1.921875 -3.890625 C -2.117188 -3.816406 -2.320312 -3.773438 -2.53125 -3.765625 C -2.738281 -3.765625 -2.90625 -3.816406 -3.03125 -3.921875 C -3.15625 -4.023438 -3.1875 -4.171875 -3.125 -4.359375 C -3.050781 -4.703125 -2.953125 -5.046875 -2.828125 -5.390625 C -2.109375 -7.492188 -1.367188 -9.601562 -0.609375 -11.71875 C -0.585938 -11.738281 -0.582031 -11.765625 -0.59375 -11.796875 C -0.476562 -12.128906 -0.34375 -12.441406 -0.1875 -12.734375 C 0.0078125 -13.015625 0.257812 -13.15625 0.5625 -13.15625 C 0.863281 -13.15625 1.09375 -13.015625 1.25 -12.734375 C 1.445312 -12.347656 1.597656 -12.132812 1.703125 -12.09375 C 1.804688 -12.050781 2.003906 -12.125 2.296875 -12.3125 C 2.960938 -12.6875 3.613281 -12.976562 4.25 -13.1875 C 4.894531 -13.394531 5.441406 -13.453125 5.890625 -13.359375 C 6.335938 -13.265625 6.570312 -12.8125 6.59375 -12 Z M 6.59375 -12 "/></g></g><g transform="translate(244.302643, 205.337713)"><g><path d="M 8.8125 -8.265625 C 8.25 -7.492188 7.5625 -6.800781 6.75 -6.1875 C 5.9375 -5.582031 5.238281 -5.160156 4.65625 -4.921875 C 4.070312 -4.679688 3.46875 -4.492188 2.84375 -4.359375 C 1.820312 -4.148438 0.859375 -4.132812 -0.046875 -4.3125 C -1.546875 -4.664062 -2.207031 -5.675781 -2.03125 -7.34375 C -1.851562 -8.78125 -1.207031 -9.984375 -0.09375 -10.953125 C 1.019531 -11.921875 2.238281 -12.503906 3.5625 -12.703125 C 3.5625 -12.703125 3.570312 -12.703125 3.59375 -12.703125 C 3.925781 -12.785156 4.253906 -12.816406 4.578125 -12.796875 C 5.109375 -12.691406 5.476562 -12.441406 5.6875 -12.046875 C 5.894531 -11.660156 5.878906 -11.1875 5.640625 -10.625 C 5.078125 -9.375 4.171875 -8.585938 2.921875 -8.265625 C 2.085938 -8.046875 1.265625 -7.957031 0.453125 -8 C 0.304688 -7.988281 0.179688 -7.921875 0.078125 -7.796875 C -0.0234375 -7.679688 -0.078125 -7.539062 -0.078125 -7.375 C -0.148438 -6.34375 0.257812 -5.757812 1.15625 -5.625 C 2.257812 -5.425781 3.34375 -5.601562 4.40625 -6.15625 C 5.632812 -6.769531 6.738281 -7.726562 7.71875 -9.03125 C 8.707031 -10.34375 9.296875 -10.972656 9.484375 -10.921875 C 9.679688 -10.878906 9.773438 -10.675781 9.765625 -10.3125 C 9.691406 -9.71875 9.375 -9.035156 8.8125 -8.265625 Z M 0.96875 -9.859375 C 0.90625 -9.765625 0.867188 -9.664062 0.859375 -9.5625 C 0.847656 -9.457031 0.898438 -9.378906 1.015625 -9.328125 C 1.453125 -9.160156 1.898438 -9.144531 2.359375 -9.28125 C 2.828125 -9.425781 3.203125 -9.671875 3.484375 -10.015625 C 3.773438 -10.367188 3.859375 -10.75 3.734375 -11.15625 C 3.679688 -11.3125 3.585938 -11.398438 3.453125 -11.421875 C 3.316406 -11.441406 3.191406 -11.425781 3.078125 -11.375 C 2.234375 -11.082031 1.53125 -10.578125 0.96875 -9.859375 Z M 0.96875 -9.859375 "/></g></g><g transform="translate(254.400777, 203.697536)"><g><path d="M 6.984375 -10.15625 C 5.253906 -9.175781 4.019531 -8.40625 3.28125 -7.84375 C 2.738281 -7.457031 2.4375 -7.160156 2.375 -6.953125 C 2.320312 -6.753906 2.445312 -6.421875 2.75 -5.953125 C 2.757812 -5.929688 2.785156 -5.898438 2.828125 -5.859375 C 3.179688 -5.273438 3.4375 -4.660156 3.59375 -4.015625 C 3.882812 -2.703125 2.898438 -1.585938 0.640625 -0.671875 C -1.609375 0.242188 -3.171875 0.515625 -4.046875 0.140625 C -4.921875 -0.222656 -5.265625 -0.8125 -5.078125 -1.625 C -4.898438 -2.445312 -4.234375 -3.351562 -3.078125 -4.34375 C -1.921875 -5.34375 -1.148438 -6.050781 -0.765625 -6.46875 C -0.390625 -6.882812 -0.328125 -7.296875 -0.578125 -7.703125 C -0.648438 -7.828125 -0.738281 -7.960938 -0.84375 -8.109375 C -1.039062 -8.453125 -1.253906 -8.796875 -1.484375 -9.140625 C -1.898438 -9.773438 -2.140625 -10.4375 -2.203125 -11.125 C -2.273438 -11.8125 -2.117188 -12.421875 -1.734375 -12.953125 C -1.347656 -13.484375 -0.679688 -13.84375 0.265625 -14.03125 C 0.804688 -14.132812 1.300781 -14.140625 1.75 -14.046875 C 2.207031 -13.953125 2.601562 -13.703125 2.9375 -13.296875 C 3.195312 -13.015625 3.175781 -12.71875 2.875 -12.40625 C 2.6875 -12.1875 2.457031 -12.117188 2.1875 -12.203125 C 2.019531 -12.253906 1.847656 -12.328125 1.671875 -12.421875 C 1.660156 -12.460938 1.65625 -12.484375 1.65625 -12.484375 C 1.582031 -12.515625 1.515625 -12.550781 1.453125 -12.59375 C 1.359375 -12.6875 1.265625 -12.757812 1.171875 -12.8125 C 0.847656 -12.96875 0.535156 -12.976562 0.234375 -12.84375 C -0.0546875 -12.71875 -0.242188 -12.445312 -0.328125 -12.03125 C -0.390625 -11.71875 -0.394531 -11.40625 -0.34375 -11.09375 C -0.25 -10.707031 -0.0976562 -10.347656 0.109375 -10.015625 C 0.234375 -9.816406 0.351562 -9.628906 0.46875 -9.453125 C 0.75 -8.972656 0.96875 -8.644531 1.125 -8.46875 C 1.289062 -8.300781 1.457031 -8.25 1.625 -8.3125 C 1.800781 -8.375 3.34375 -9.226562 6.25 -10.875 C 6.90625 -11.21875 7.148438 -10.976562 6.984375 -10.15625 Z M 0.515625 -2.3125 C 1.285156 -2.726562 1.546875 -3.328125 1.296875 -4.109375 C 1.285156 -4.171875 1.257812 -4.238281 1.21875 -4.3125 C 1.101562 -4.738281 0.957031 -5.054688 0.78125 -5.265625 C 0.601562 -5.472656 0.289062 -5.414062 -0.15625 -5.09375 C -1.238281 -4.21875 -2.21875 -3.238281 -3.09375 -2.15625 C -3.15625 -2.0625 -3.210938 -1.972656 -3.265625 -1.890625 C -3.265625 -1.890625 -3.269531 -1.875 -3.28125 -1.84375 C -3.332031 -1.738281 -3.328125 -1.628906 -3.265625 -1.515625 C -3.203125 -1.398438 -3.085938 -1.359375 -2.921875 -1.390625 C -1.691406 -1.398438 -0.546875 -1.707031 0.515625 -2.3125 Z M 0.515625 -2.3125 "/></g></g><g transform="translate(262.087157, 202.449086)"><g><path d="M 9.484375 -10.140625 C 8.222656 -8.054688 6.921875 -6.457031 5.578125 -5.34375 C 4.234375 -4.238281 2.691406 -3.695312 0.953125 -3.71875 C -0.785156 -3.738281 -1.671875 -4.765625 -1.703125 -6.796875 C -1.648438 -7.816406 -1.519531 -8.835938 -1.3125 -9.859375 C -0.769531 -12.210938 -0.222656 -14.550781 0.328125 -16.875 C 0.492188 -17.71875 0.679688 -18.5625 0.890625 -19.40625 C 0.941406 -19.59375 0.988281 -19.78125 1.03125 -19.96875 C 1.101562 -20.269531 1.179688 -20.582031 1.265625 -20.90625 C 1.367188 -21.445312 1.125 -21.679688 0.53125 -21.609375 C 0.195312 -21.554688 -0.128906 -21.503906 -0.453125 -21.453125 C -0.597656 -21.421875 -0.765625 -21.390625 -0.953125 -21.359375 C -1.128906 -21.316406 -1.304688 -21.269531 -1.484375 -21.21875 C -1.773438 -21.132812 -2.066406 -21.066406 -2.359375 -21.015625 C -2.660156 -20.972656 -2.953125 -21.007812 -3.234375 -21.125 C -3.304688 -21.132812 -3.367188 -21.171875 -3.421875 -21.234375 C -3.472656 -21.296875 -3.503906 -21.367188 -3.515625 -21.453125 C -3.503906 -21.492188 -3.476562 -21.550781 -3.4375 -21.625 C -3.394531 -21.695312 -3.332031 -21.753906 -3.25 -21.796875 C -3.019531 -21.941406 -2.765625 -22.054688 -2.484375 -22.140625 C -1.773438 -22.296875 -1.070312 -22.4375 -0.375 -22.5625 C -0.09375 -22.613281 0.148438 -22.65625 0.359375 -22.6875 C 0.816406 -22.757812 1.15625 -22.832031 1.375 -22.90625 C 1.601562 -22.976562 1.765625 -23.128906 1.859375 -23.359375 C 1.960938 -23.585938 2.070312 -23.929688 2.1875 -24.390625 C 2.257812 -24.640625 2.351562 -24.914062 2.46875 -25.21875 C 2.707031 -26.09375 2.953125 -26.984375 3.203125 -27.890625 C 3.304688 -28.296875 3.421875 -28.695312 3.546875 -29.09375 C 3.648438 -29.46875 3.847656 -29.78125 4.140625 -30.03125 C 4.421875 -30.238281 4.691406 -30.273438 4.953125 -30.140625 C 5.035156 -30.097656 5.101562 -30.023438 5.15625 -29.921875 C 5.21875 -29.828125 5.253906 -29.738281 5.265625 -29.65625 C 5.335938 -29.207031 5.289062 -28.75 5.125 -28.28125 C 5.09375 -28.1875 5.0625 -28.066406 5.03125 -27.921875 C 4.945312 -27.484375 4.859375 -27.035156 4.765625 -26.578125 C 4.546875 -25.742188 4.351562 -24.890625 4.1875 -24.015625 C 4.125 -23.847656 4.140625 -23.710938 4.234375 -23.609375 C 4.335938 -23.503906 4.460938 -23.460938 4.609375 -23.484375 C 5.429688 -23.585938 6.238281 -23.703125 7.03125 -23.828125 C 7.4375 -23.898438 7.835938 -23.96875 8.234375 -24.03125 C 9.503906 -24.21875 10.046875 -24.128906 9.859375 -23.765625 C 9.710938 -23.523438 9.539062 -23.375 9.34375 -23.3125 C 9.15625 -23.257812 8.953125 -23.234375 8.734375 -23.234375 C 8.597656 -23.210938 8.46875 -23.191406 8.34375 -23.171875 C 7.0625 -22.867188 5.785156 -22.609375 4.515625 -22.390625 C 3.929688 -22.285156 3.582031 -21.953125 3.46875 -21.390625 C 3.351562 -20.859375 3.234375 -20.316406 3.109375 -19.765625 C 2.921875 -19.046875 2.757812 -18.351562 2.625 -17.6875 C 2.46875 -17.050781 2.304688 -16.398438 2.140625 -15.734375 C 1.734375 -14.066406 1.351562 -12.40625 1 -10.75 C 0.78125 -9.675781 0.648438 -8.585938 0.609375 -7.484375 C 0.429688 -5.472656 1.296875 -4.859375 3.203125 -5.640625 C 5.066406 -6.410156 6.878906 -8.132812 8.640625 -10.8125 C 9.453125 -11.570312 9.734375 -11.347656 9.484375 -10.140625 Z M 9.484375 -10.140625 "/></g></g><g transform="translate(271.94238, 200.848364)"><g><path d="M 12.78125 -10.375 C 12.59375 -10.144531 12.398438 -9.945312 12.203125 -9.78125 C 11.535156 -9.1875 10.925781 -8.707031 10.375 -8.34375 C 9.820312 -7.976562 9.160156 -7.59375 8.390625 -7.1875 C 7.253906 -6.632812 6.472656 -6.585938 6.046875 -7.046875 C 5.617188 -7.503906 5.441406 -8.21875 5.515625 -9.1875 C 5.628906 -10.570312 5.660156 -11.570312 5.609375 -12.1875 C 5.566406 -12.8125 5.332031 -12.988281 4.90625 -12.71875 C 4.476562 -12.445312 3.75 -11.679688 2.71875 -10.421875 C 1.28125 -8.703125 0.117188 -6.8125 -0.765625 -4.75 C -0.890625 -4.476562 -1.039062 -4.242188 -1.21875 -4.046875 C -1.40625 -3.847656 -1.664062 -3.722656 -2 -3.671875 C -2.300781 -3.617188 -2.535156 -3.660156 -2.703125 -3.796875 C -2.878906 -3.941406 -2.925781 -4.164062 -2.84375 -4.46875 C -2.40625 -6.070312 -1.945312 -7.671875 -1.46875 -9.265625 C -0.65625 -12.046875 0.132812 -14.800781 0.90625 -17.53125 C 1.488281 -19.582031 2.0625 -21.628906 2.625 -23.671875 C 2.96875 -24.890625 3.300781 -26.101562 3.625 -27.3125 C 3.65625 -27.40625 3.691406 -27.507812 3.734375 -27.625 C 3.753906 -27.757812 3.785156 -27.894531 3.828125 -28.03125 C 3.878906 -28.164062 3.9375 -28.3125 4 -28.46875 C 4.039062 -28.613281 4.148438 -28.742188 4.328125 -28.859375 C 4.503906 -28.972656 4.6875 -29.054688 4.875 -29.109375 C 5.070312 -29.160156 5.226562 -29.175781 5.34375 -29.15625 C 5.5 -29.0625 5.597656 -28.957031 5.640625 -28.84375 C 5.679688 -28.738281 5.679688 -28.617188 5.640625 -28.484375 C 5.617188 -28.453125 5.613281 -28.414062 5.625 -28.375 C 5.5 -27.632812 5.363281 -26.925781 5.21875 -26.25 C 4.320312 -22.476562 3.28125 -18.734375 2.09375 -15.015625 C 2.007812 -14.765625 1.910156 -14.460938 1.796875 -14.109375 C 1.609375 -13.597656 1.441406 -13.097656 1.296875 -12.609375 C 1.148438 -12.128906 1.125 -11.820312 1.21875 -11.6875 C 1.320312 -11.5625 1.648438 -11.734375 2.203125 -12.203125 C 2.359375 -12.367188 2.503906 -12.53125 2.640625 -12.6875 C 3.078125 -13.09375 3.503906 -13.476562 3.921875 -13.84375 C 4.296875 -14.1875 4.738281 -14.410156 5.25 -14.515625 C 6.445312 -14.796875 7.21875 -14.351562 7.5625 -13.1875 C 7.695312 -12.726562 7.753906 -12.257812 7.734375 -11.78125 C 7.722656 -11.300781 7.6875 -10.828125 7.625 -10.359375 C 7.625 -10.234375 7.625 -10.101562 7.625 -9.96875 C 7.550781 -9.144531 7.679688 -8.695312 8.015625 -8.625 C 8.359375 -8.5625 8.789062 -8.703125 9.3125 -9.046875 C 9.84375 -9.390625 10.378906 -9.773438 10.921875 -10.203125 C 11.285156 -10.492188 11.609375 -10.734375 11.890625 -10.921875 C 12.171875 -11.117188 12.390625 -11.222656 12.546875 -11.234375 C 12.835938 -11.234375 12.984375 -11.140625 12.984375 -10.953125 C 12.984375 -10.765625 12.914062 -10.570312 12.78125 -10.375 Z M 12.78125 -10.375 "/></g></g><g transform="translate(285.180999, 198.698098)"><g><path d="M 11.15625 -10.875 C 11.457031 -10.769531 11.535156 -10.398438 11.390625 -9.765625 C 11.140625 -9.265625 10.851562 -8.789062 10.53125 -8.34375 C 10.207031 -7.90625 9.835938 -7.492188 9.421875 -7.109375 C 9.390625 -7.109375 9.378906 -7.097656 9.390625 -7.078125 C 9.128906 -6.828125 8.835938 -6.597656 8.515625 -6.390625 C 5.921875 -4.941406 4.421875 -5.296875 4.015625 -7.453125 C 3.046875 -6.296875 2.390625 -5.578125 2.046875 -5.296875 C 1.222656 -4.609375 0.269531 -4.210938 -0.8125 -4.109375 C -1.601562 -4.003906 -2.175781 -4.144531 -2.53125 -4.53125 C -2.882812 -4.925781 -2.957031 -5.523438 -2.75 -6.328125 C -2.425781 -7.578125 -1.863281 -8.734375 -1.0625 -9.796875 C -0.132812 -10.992188 0.953125 -12.007812 2.203125 -12.84375 C 2.859375 -13.320312 3.582031 -13.582031 4.375 -13.625 C 5.175781 -13.707031 5.722656 -13.34375 6.015625 -12.53125 C 6.117188 -12.28125 6.09375 -12.039062 5.9375 -11.8125 C 5.71875 -11.539062 5.429688 -11.4375 5.078125 -11.5 C 5.054688 -11.5 5.019531 -11.5 4.96875 -11.5 C 4.925781 -11.507812 4.890625 -11.523438 4.859375 -11.546875 C 4.460938 -11.960938 4.097656 -12.101562 3.765625 -11.96875 C 3.429688 -11.832031 3.09375 -11.613281 2.75 -11.3125 C 1.132812 -9.988281 0.0507812 -8.328125 -0.5 -6.328125 C -0.539062 -6.234375 -0.554688 -6.132812 -0.546875 -6.03125 C -0.546875 -5.9375 -0.503906 -5.863281 -0.421875 -5.8125 C -0.210938 -5.78125 0.0078125 -5.832031 0.25 -5.96875 C 0.488281 -6.113281 0.71875 -6.300781 0.9375 -6.53125 C 1.164062 -6.769531 1.359375 -6.960938 1.515625 -7.109375 C 1.535156 -7.148438 1.546875 -7.171875 1.546875 -7.171875 C 2.273438 -8.015625 2.984375 -8.875 3.671875 -9.75 C 3.960938 -10.1875 4.378906 -10.472656 4.921875 -10.609375 C 5.679688 -10.734375 6.046875 -10.445312 6.015625 -9.75 C 5.992188 -9.476562 5.960938 -9.207031 5.921875 -8.9375 C 5.796875 -7.789062 5.890625 -7.144531 6.203125 -7 C 6.515625 -6.851562 6.9375 -6.921875 7.46875 -7.203125 C 8.007812 -7.492188 8.523438 -7.953125 9.015625 -8.578125 C 9.503906 -9.210938 9.910156 -9.78125 10.234375 -10.28125 C 10.554688 -10.789062 10.863281 -10.988281 11.15625 -10.875 Z M 11.15625 -10.875 "/></g></g></g><g clip-path="url(#e852ac67a0)"><g clip-path="url(#e42dc6598c)"><path fill="#000000" d="M 287.066406 188.25 L 291.136719 188.25 L 291.136719 192.320312 L 287.066406 192.320312 Z M 287.066406 188.25 " fill-opacity="1" fill-rule="nonzero"/></g></g></svg>