<?xml version="1.0" encoding="utf-8"?>
<svg viewBox="57 269 103 44.3" xmlns="http://www.w3.org/2000/svg" xmlns:bx="https://boxy-svg.com">
  <defs>
    <style bx:fonts="Akronim">@import url(https://fonts.googleapis.com/css2?family=Akronim%3Aital%2Cwght%400%2C400&amp;display=swap);</style>
  </defs>
  <path style="stroke: rgb(0, 0, 0); fill: rgb(255, 99, 54);" d="M 87.518 301.472 C 94.951 301.472 102.843 300.719 109.621 297.272 C 110.507 296.822 114.369 293.97 115.207 293.321 C 116.033 292.682 116.879 292.066 117.636 291.344 C 118.376 290.639 120.794 288.203 120.794 286.899 C 120.794 286.009 119.332 285.621 118.851 285.416 C 115.674 284.071 112.537 283.252 109.136 282.699 C 106.363 282.248 103.687 282.055 100.877 282.205 C 94.807 282.53 88.307 289.458 85.574 294.555 C 84.901 295.809 81.174 301.215 84.117 302.212 C 93.036 305.236 105.274 301.591 111.563 294.555 C 115.844 289.767 118.732 282.96 123.465 278.748 C 126.645 275.919 134.146 277.032 138.04 277.265 C 139.112 277.329 141.242 277.4 141.683 278.748 C 143.673 284.817 135.799 288.282 131.967 290.356 C 122.651 295.399 111.127 300.731 100.877 300.731"/>
  <text style="fill: rgb(255, 255, 255); font-family: Akronim; font-size: 28px;" transform="matrix(0.6415010690689087, 0, 0, 0.8675500750541687, 17.072948455810547, 122.8776626586914)" x="129.815" y="201.697">Aakash</text>
</svg>